<?xml version="1.0" standalone="no"?>
<!DOCTYPE svg PUBLIC "-//W3C//DTD SVG 20010904//EN"
 "http://www.w3.org/TR/2001/REC-SVG-20010904/DTD/svg10.dtd">
<svg version="1.0" xmlns="http://www.w3.org/2000/svg"
 width="512.000000pt" height="512.000000pt" viewBox="0 0 512.000000 512.000000"
 preserveAspectRatio="xMidYMid meet">

<g transform="translate(0.000000,512.000000) scale(0.100000,-0.100000)"
fill="#000000" stroke="none">
<path d="M2396 5105 c-351 -73 -615 -319 -707 -660 -32 -115 -32 -335 0 -450
85 -314 337 -564 651 -647 109 -28 317 -31 423 -5 393 97 671 430 694 832 24
420 -262 809 -672 916 -104 27 -293 34 -389 14z"/>
<path d="M1425 3152 c-107 -37 -190 -105 -235 -192 -18 -37 -419 -1026 -445
-1100 -19 -55 -19 -164 0 -221 9 -24 30 -63 48 -86 18 -24 166 -155 329 -293
277 -232 302 -251 350 -260 28 -6 53 -8 56 -5 6 5 172 512 172 523 0 5 -37 19
-82 31 -63 18 -102 22 -168 19 l-85 -3 -6 145 c-3 80 -4 147 -2 149 1 2 33 6
70 9 67 5 68 5 108 54 52 65 184 181 271 240 341 228 773 290 1164 166 229
-73 467 -229 604 -396 l49 -60 69 -4 c38 -3 70 -7 71 -9 2 -2 1 -69 -2 -149
l-6 -145 -85 3 c-66 3 -105 -1 -168 -19 -45 -12 -82 -26 -82 -31 0 -4 38 -124
85 -265 l84 -258 42 3 c23 2 50 7 59 10 32 13 615 513 643 552 15 21 34 58 42
81 19 53 19 165 0 218 -18 53 -400 999 -431 1070 -48 108 -130 182 -242 220
-61 21 -76 21 -1144 21 -1001 -1 -1087 -2 -1133 -18z"/>
<path d="M2350 2071 c-154 -34 -266 -83 -396 -172 -87 -60 -123 -96 -103 -103
8 -3 60 -18 117 -35 57 -16 106 -32 110 -36 3 -3 -14 -65 -38 -138 -24 -73
-62 -192 -86 -264 l-42 -133 86 1 87 0 34 72 c89 187 306 301 512 270 160 -25
302 -129 370 -270 l34 -72 87 0 86 -1 -42 133 c-24 72 -62 191 -86 264 -24 73
-42 135 -38 138 3 3 56 20 117 38 62 18 113 37 114 42 1 14 -107 100 -183 143
-168 97 -300 133 -505 138 -120 3 -167 0 -235 -15z"/>
<path d="M2485 1221 c-68 -30 -125 -113 -125 -181 0 -79 66 -162 146 -186 49
-14 59 -14 108 0 80 24 146 107 146 186 0 37 -24 94 -53 127 -60 69 -145 89
-222 54z"/>
<path d="M1775 770 c-35 -107 -41 -119 -59 -115 -74 17 -136 21 -136 10 0 -27
85 -180 141 -254 143 -190 350 -329 578 -387 51 -13 97 -24 102 -24 5 0 9 127
9 283 l0 282 -69 32 c-92 43 -179 130 -223 223 l-33 69 -135 0 -136 1 -39
-120z"/>
<path d="M3003 821 c-44 -92 -132 -180 -224 -224 l-69 -32 0 -282 c0 -156 4
-283 9 -283 5 0 51 11 104 24 288 73 542 279 677 548 44 89 49 112 23 104 -10
-2 -38 -7 -63 -11 -25 -4 -52 -8 -60 -11 -12 -3 -25 23 -55 116 l-39 120 -136
0 -135 0 -32 -69z"/>
</g>
</svg>
