<?xml version="1.0" standalone="no"?>
<!DOCTYPE svg PUBLIC "-//W3C//DTD SVG 20010904//EN"
 "http://www.w3.org/TR/2001/REC-SVG-20010904/DTD/svg10.dtd">
<svg version="1.0" xmlns="http://www.w3.org/2000/svg"
 width="512.000000pt" height="512.000000pt" viewBox="0 0 512.000000 512.000000"
 preserveAspectRatio="xMidYMid meet">

<g transform="translate(0.000000,512.000000) scale(0.100000,-0.100000)"
fill="#000000" stroke="none">
<path d="M1715 4828 c-162 -22 -293 -147 -331 -316 -42 -187 49 -373 223 -455
62 -29 77 -32 163 -32 114 0 159 12 239 66 139 93 209 269 167 424 -28 106
-89 195 -171 249 -86 58 -181 79 -290 64z"/>
<path d="M3275 4399 c-22 -11 -287 -157 -590 -322 -302 -165 -572 -310 -600
-321 -46 -18 -80 -20 -420 -26 -355 -5 -372 -6 -411 -27 -40 -21 -103 -83
-122 -120 -5 -10 -119 -308 -252 -663 -212 -564 -241 -650 -237 -687 16 -146
207 -216 316 -117 31 28 66 92 187 350 l149 316 3 -368 c2 -341 -1 -428 -44
-1146 -25 -427 -44 -792 -40 -811 11 -58 59 -122 111 -147 102 -50 218 -16
278 82 28 45 29 50 111 829 46 431 86 777 89 769 3 -8 46 -350 97 -760 50
-410 96 -762 101 -783 13 -48 72 -115 124 -138 46 -21 139 -25 200 -8 22 6 56
28 76 48 70 69 71 16 -15 1038 l-77 918 3 515 3 515 557 360 c655 424 642 415
663 456 40 77 14 178 -62 236 -49 38 -141 44 -198 12z"/>
<path d="M3330 2810 c-12 -12 -20 -33 -20 -54 0 -47 29 -66 97 -66 l53 0 0
-290 0 -290 -103 0 c-90 0 -109 -3 -154 -25 -32 -16 -61 -41 -79 -67 l-29 -41
0 -732 0 -731 25 -37 c14 -21 43 -50 64 -65 l39 -27 536 -3 c368 -2 548 0 574
8 49 14 106 65 128 115 17 37 19 84 19 738 0 762 2 737 -58 801 -48 51 -95 66
-214 66 l-108 0 0 290 0 290 60 0 c47 0 64 4 80 20 27 27 26 71 -3 98 -23 22
-26 22 -455 22 -419 0 -433 -1 -452 -20z m640 -410 l0 -290 -180 0 -180 0 0
290 0 290 180 0 180 0 0 -290z m-138 -627 c17 -15 18 -45 18 -534 l0 -518 -22
-15 c-34 -24 -73 -20 -97 10 -21 26 -21 36 -21 521 0 493 2 524 34 545 20 13
69 8 88 -9z m-335 -195 l23 -21 0 -307 c0 -345 -1 -350 -67 -350 -74 0 -73 -5
-73 347 0 300 1 314 20 333 26 26 68 25 97 -2z m674 3 l24 -19 0 -310 c0 -291
-1 -311 -19 -331 -12 -13 -31 -21 -50 -21 -73 1 -76 12 -76 355 l0 296 25 24
c29 30 64 32 96 6z"/>
</g>
</svg>
