<?xml version="1.0" standalone="no"?>
<!DOCTYPE svg PUBLIC "-//W3C//DTD SVG 20010904//EN"
 "http://www.w3.org/TR/2001/REC-SVG-20010904/DTD/svg10.dtd">
<svg version="1.0" xmlns="http://www.w3.org/2000/svg"
 width="300.000000pt" height="300.000000pt" viewBox="0 0 300.000000 300.000000"
 preserveAspectRatio="xMidYMid meet">
<metadata>
Created by potrace 1.10, written by Peter Selinger 2001-2011
</metadata>
<g transform="translate(0.000000,300.000000) scale(0.100000,-0.100000)"
fill="#000000" stroke="none">
<path d="M1345 2976 c-246 -78 -404 -330 -365 -582 15 -100 77 -222 150 -293
103 -101 225 -151 370 -151 206 0 379 107 469 291 65 134 74 250 30 395 -55
179 -241 338 -411 351 -58 4 -61 3 -44 -11 11 -9 44 -23 75 -32 85 -24 165
-71 223 -130 107 -109 142 -203 136 -362 -3 -99 -6 -113 -40 -185 -43 -90
-123 -176 -204 -219 -156 -84 -351 -76 -500 20 -78 51 -128 108 -169 193 -134
280 11 593 315 683 30 9 66 23 80 31 24 14 23 14 -25 14 -27 0 -68 -6 -90 -13z"/>
<path d="M827 1844 c-93 -29 -108 -52 -261 -431 -115 -285 -138 -350 -138
-392 1 -86 13 -100 252 -301 136 -114 173 -140 203 -140 7 0 34 66 61 148 27
81 51 152 53 158 5 15 -104 37 -156 32 -39 -3 -41 -2 -41 23 0 14 -3 54 -6 88
l-7 61 39 0 c35 0 46 7 102 65 104 107 233 184 372 222 102 28 321 25 420 -5
143 -45 271 -126 369 -234 38 -42 49 -48 84 -48 l40 0 -7 -52 c-3 -29 -6 -69
-6 -88 0 -36 0 -36 -41 -32 -52 5 -161 -17 -156 -32 2 -6 26 -78 53 -159 l49
-148 30 7 c32 7 86 49 274 211 143 123 154 137 159 213 4 59 0 71 -134 402
-155 384 -167 403 -265 432 -76 23 -1268 23 -1342 0z m1360 -51 c23 -13 51
-36 63 -53 12 -17 80 -176 151 -353 137 -340 145 -372 111 -434 -18 -33 -34
-48 -235 -217 -105 -87 -131 -105 -143 -95 -22 18 -78 209 -66 221 6 6 41 14
77 17 88 9 95 19 95 131 0 95 -8 111 -65 124 -16 4 -59 36 -96 70 -84 80 -141
119 -234 162 -215 100 -475 99 -691 -1 -90 -41 -159 -89 -236 -164 -32 -30
-77 -62 -100 -71 -58 -21 -71 -50 -62 -140 9 -93 17 -102 99 -111 36 -3 71
-11 77 -17 11 -11 -45 -198 -66 -220 -12 -12 -35 4 -142 94 -254 212 -254 212
-254 287 0 38 25 111 126 360 69 172 137 329 150 349 26 40 68 67 124 79 19 4
314 6 655 6 l620 -2 42 -22z"/>
<path d="M1408 1220 c-84 -13 -198 -61 -274 -116 l-68 -48 74 -20 c41 -11 76
-20 78 -22 3 -2 -77 -258 -93 -296 -6 -16 -1 -18 47 -18 52 0 54 1 66 33 18
50 65 100 123 132 48 27 63 30 139 30 76 0 91 -3 139 -30 58 -32 105 -82 123
-132 12 -32 14 -33 66 -33 48 0 53 2 47 18 -10 23 -95 286 -95 292 0 4 34 14
75 25 41 10 72 22 69 26 -2 4 -38 30 -80 58 -124 84 -294 123 -436 101z m296
-74 c68 -26 116 -53 116 -66 0 -4 -16 -17 -35 -29 -45 -26 -45 -54 -5 -175 32
-96 36 -116 20 -116 -5 0 -10 4 -10 10 0 5 -26 36 -57 68 -97 99 -223 128
-350 81 -45 -17 -73 -38 -125 -91 -38 -38 -68 -63 -68 -56 0 8 14 54 30 103
42 124 40 154 -11 181 -37 19 -36 28 5 52 136 81 336 96 490 38z"/>
<path d="M1461 717 c-69 -24 -98 -116 -54 -175 39 -53 134 -60 177 -13 80 89
-10 227 -123 188z m89 -57 c27 -27 26 -77 -2 -101 -46 -41 -118 -10 -118 51 0
38 32 70 70 70 17 0 39 -9 50 -20z"/>
<path d="M1039 449 l-21 -70 -32 6 c-17 4 -39 9 -48 11 -26 8 -23 -3 22 -80
92 -158 228 -262 388 -300 l62 -14 0 167 0 167 -36 13 c-47 17 -118 88 -135
135 l-13 36 -83 0 -82 0 -22 -71z m184 -18 c20 -27 52 -62 73 -77 78 -61 75
-52 72 -182 l-3 -117 -25 4 c-70 9 -222 108 -283 183 -61 75 -63 86 -29 117
16 14 35 42 42 61 20 53 29 60 75 60 40 0 46 -3 78 -49z"/>
<path d="M1761 484 c-17 -47 -88 -118 -135 -135 l-36 -13 0 -167 0 -166 43 8
c158 29 312 144 403 299 49 83 52 94 27 86 -10 -2 -32 -7 -49 -11 l-32 -6 -21
70 -22 71 -82 0 -83 0 -13 -36z m146 -16 c6 -7 16 -30 22 -50 7 -21 27 -49 44
-62 l32 -25 -41 -58 c-65 -92 -207 -193 -308 -219 l-26 -6 0 125 0 124 52 39
c29 22 70 63 92 92 36 48 42 52 81 52 23 0 47 -6 52 -12z"/>
</g>
</svg>
